<svg width="62" height="60" viewBox="0 0 62 60" fill="none" xmlns="http://www.w3.org/2000/svg">
<path id="Star 5" d="M17.9151 8.01951C16.7096 1.16155 26.1919 -1.90064 29.2252 4.36702L34.1504 14.5438C35.2668 16.8505 37.725 18.1935 40.2692 17.8869L55.1369 16.0948C61.6814 15.3059 64.5263 24.1154 58.7566 27.3033L45.649 34.5456C43.4059 35.7849 42.1976 38.312 42.6413 40.836L44.5985 51.9712C45.8039 58.8292 36.3217 61.8914 33.2884 55.6237L28.3631 45.447C27.2467 43.1403 24.7886 41.7972 22.2443 42.1039L7.37666 43.896C0.832188 44.6848 -2.01275 35.8753 3.75697 32.6874L16.8646 25.4452C19.1076 24.2058 20.316 21.6787 19.8723 19.1548L17.9151 8.01951Z" fill="#F6D717"/>
</svg>
